# xmcd
#
# Track frame offsets: 
#        150
#        23451
#        50019
#        67707
#        90773
#        106066
#        128899
#        141206
#        147451
#        179868
#        193968
#        224497
#        263075
#        300214
#
# Disc length: 4569 seconds
#
# Revision: 5
# Processed by: cddbd v1.5.2PL0 Copyright (c) Steve Scherf et al.
# Submitted via: ExactAudioCopy v0.99pb4
#
DISCID=c411d70e
DTITLE=Various Artist - High Fidelity Reference CD 73
DYEAR=2003
DGENRE=Other
TTITLE0=Adrian Sherwood - Hari Up Hari
TTITLE1=Stylophonic - Da Symphony
TTITLE2=Seierø - Cunningly Gracious
TTITLE3=Flora Purim - This Magic
TTITLE4=Abdullah Ibrahim - Blue Bolero (Fragment 1) - Third Line Samba
TTITLE5=Moussa Diallo - Maninda
TTITLE6=Kenneth Knudsen - Close Up
TTITLE7=Kenneth Knudsen - Modification
TTITLE8=Haydn - Piano Concerto No. 1
TTITLE9=Stokem - Loserai Dire
TTITLE10=Händel - Dulcis Amor, Jeso Case
TTITLE11=Schubert - String Quartet No. 8, 1. Mov
TTITLE12=Schumann - Adagio And Allegro, Opus 70
TTITLE13=Lumbye - Drømmebilleder, Fantasi
EXTD=
EXTT0=
EXTT1=
EXTT2=
EXTT3=
EXTT4=
EXTT5=
EXTT6=
EXTT7=
EXTT8=
EXTT9=
EXTT10=
EXTT11=
EXTT12=
EXTT13=
PLAYORDER=
